<svg width="46" height="46" viewBox="0 0 46 46" fill="none" xmlns="http://www.w3.org/2000/svg">
<path d="M17.2487 34.4998C17.2487 36.6169 15.5325 38.3332 13.4154 38.3332C11.2983 38.3332 9.58203 36.6169 9.58203 34.4998C9.58203 32.3827 11.2983 30.6665 13.4154 30.6665C15.5325 30.6665 17.2487 32.3827 17.2487 34.4998Z" stroke="white" stroke-width="2.5"/>
<path d="M36.4167 34.4998C36.4167 36.6169 34.7004 38.3332 32.5833 38.3332C30.4662 38.3332 28.75 36.6169 28.75 34.4998C28.75 32.3827 30.4662 30.6665 32.5833 30.6665C34.7004 30.6665 36.4167 32.3827 36.4167 34.4998Z" stroke="white" stroke-width="2.5"/>
<path d="M3.83203 21.0835L34.4987 21.0835" stroke="white" stroke-width="2.5" stroke-linecap="round"/>
<path d="M36.4154 33.25C35.725 33.25 35.1654 33.8096 35.1654 34.5C35.1654 35.1904 35.725 35.75 36.4154 35.75V34.5V33.25ZM3.83203 10.25C3.14168 10.25 2.58203 10.8096 2.58203 11.5C2.58203 12.1904 3.14168 12.75 3.83203 12.75V11.5V10.25ZM27.452 12.1499L26.8747 13.2586V13.2586L27.452 12.1499ZM41.8475 25.5628L40.6804 26.0105V26.0105L41.8475 25.5628ZM41.604 33.9386L42.4879 34.8225L42.4879 34.8225L41.604 33.9386ZM34.1498 20.4198L33.2722 21.3099L33.2722 21.3099L34.1498 20.4198ZM8.54925 12.3839C9.0374 11.8957 9.0374 11.1043 8.54925 10.6161C8.06109 10.128 7.26964 10.128 6.78148 10.6161L7.66536 11.5L8.54925 12.3839ZM4.11828 32.4064L5.1816 31.7493H5.1816L4.11828 32.4064ZM9.29484 35.7166C9.96673 35.8752 10.64 35.4591 10.7986 34.7872C10.9572 34.1153 10.5411 33.442 9.86922 33.2834L9.58203 34.5L9.29484 35.7166ZM17.2487 33.25C16.5583 33.25 15.9987 33.8096 15.9987 34.5C15.9987 35.1904 16.5583 35.75 17.2487 35.75V34.5L17.2487 33.25ZM28.7487 35.75C29.4391 35.75 29.9987 35.1904 29.9987 34.5C29.9987 33.8096 29.4391 33.25 28.7487 33.25V34.5V35.75ZM36.4154 34.5V35.75H38.332V34.5V33.25H36.4154V34.5ZM42.1654 30.6667H43.4154V29.286H42.1654H40.9154V30.6667H42.1654ZM21.8028 11.5V10.25H3.83203V11.5V12.75H21.8028V11.5ZM21.8028 11.5V12.75C23.2922 12.75 24.3262 12.7512 25.1459 12.8261C25.9404 12.8986 26.4444 13.0345 26.8747 13.2586L27.452 12.1499L28.0293 11.0411C27.2114 10.6153 26.3578 10.4263 25.3733 10.3364C24.4139 10.2488 23.2475 10.25 21.8028 10.25V11.5ZM42.1654 29.286H43.4154C43.4154 27.4594 43.4354 26.2121 43.0146 25.1151L41.8475 25.5628L40.6804 26.0105C40.8954 26.5708 40.9154 27.2532 40.9154 29.286H42.1654ZM38.332 34.5V35.75C39.2002 35.75 39.9771 35.7527 40.6017 35.6687C41.2622 35.5799 41.9362 35.3742 42.4879 34.8225L41.604 33.9386L40.7201 33.0547C40.7104 33.0645 40.6519 33.1394 40.2686 33.191C39.8493 33.2473 39.2709 33.25 38.332 33.25V34.5ZM42.1654 30.6667H40.9154C40.9154 31.6055 40.9127 32.1839 40.8563 32.6032C40.8048 32.9865 40.7298 33.045 40.7201 33.0547L41.604 33.9386L42.4879 34.8225C43.0395 34.2709 43.2452 33.5969 43.334 32.9363C43.418 32.3117 43.4154 31.5349 43.4154 30.6667H42.1654ZM34.1498 20.4198L35.0274 19.5297C33.9436 18.461 33.1702 17.0067 32.1246 15.3334C31.142 13.7611 29.9274 12.0294 28.0293 11.0411L27.452 12.1499L26.8747 13.2586C28.1221 13.908 29.0351 15.1071 30.0045 16.6583C30.9108 18.1085 31.9136 19.9703 33.2722 21.3099L34.1498 20.4198ZM41.8475 25.5628L43.0146 25.1151C42.1735 22.9224 40.3674 22.0247 38.8279 21.4125C37.9927 21.0804 37.3423 20.8688 36.637 20.5532C35.9769 20.2578 35.4435 19.9399 35.0274 19.5297L34.1498 20.4198L33.2722 21.3099C33.9871 22.0148 34.821 22.4795 35.6159 22.8351C36.3655 23.1706 37.2578 23.4786 37.9041 23.7356C39.3273 24.3016 40.2392 24.8603 40.6804 26.0105L41.8475 25.5628ZM7.66536 11.5L6.78148 10.6161C5.6182 11.7794 4.58402 13.9208 3.85954 15.8528C3.48522 16.8509 3.17104 17.8547 2.94878 18.7437C2.73282 19.6075 2.58203 20.4467 2.58203 21.0833H3.83203H5.08203C5.08203 20.7616 5.17082 20.1633 5.37414 19.35C5.57115 18.562 5.85593 17.6491 6.20036 16.7306C6.91337 14.8292 7.79586 13.1373 8.54925 12.3839L7.66536 11.5ZM3.83203 21.0833H2.58203V30.2142H3.83203H5.08203V21.0833H3.83203ZM3.83203 30.2142H2.58203C2.58203 30.7649 2.58049 31.2724 2.62444 31.6974C2.67137 32.1513 2.77781 32.6151 3.05497 33.0636L4.11828 32.4064L5.1816 31.7493C5.1725 31.7345 5.13582 31.6786 5.11118 31.4403C5.08357 31.1733 5.08203 30.8162 5.08203 30.2142H3.83203ZM9.58203 34.5L9.86922 33.2834C9.42687 33.179 8.89556 33.0908 8.412 33.0046C7.90492 32.9141 7.4076 32.8192 6.94007 32.694C5.9352 32.4249 5.39591 32.096 5.1816 31.7493L4.11828 32.4064L3.05497 33.0636C3.81186 34.2883 5.20759 34.8181 6.29336 35.1089C6.87114 35.2636 7.45804 35.3739 7.97308 35.4657C8.51163 35.5618 8.94033 35.6329 9.29484 35.7166L9.58203 34.5ZM17.2487 34.5V35.75L28.7487 35.75V34.5V33.25L17.2487 33.25L17.2487 34.5Z" fill="white"/>
<path d="M17.25 21.0833V11.5" stroke="white" stroke-width="2.5" stroke-linecap="round"/>
</svg>
